<?xml version="1.0" encoding="UTF-8" standalone="no"?>
<svg
   xmlns:dc="http://purl.org/dc/elements/1.1/"
   xmlns:cc="http://creativecommons.org/ns#"
   xmlns:rdf="http://www.w3.org/1999/02/22-rdf-syntax-ns#"
   xmlns:svg="http://www.w3.org/2000/svg"
   xmlns="http://www.w3.org/2000/svg"
   xmlns:sodipodi="http://sodipodi.sourceforge.net/DTD/sodipodi-0.dtd"
   xmlns:inkscape="http://www.inkscape.org/namespaces/inkscape"
   id="Layer_1"
   data-name="Layer 1"
   viewBox="0 0 477.92998 99.999995"
   version="1.1"
   sodipodi:docname="healthlabs-logo.svg"
   width="477.92999"
   height="100"
   inkscape:version="0.92.5 (2060ec1f9f, 2020-04-08)">
  <metadata
     id="metadata35">
    <rdf:RDF>
      <cc:Work
         rdf:about="">
        <dc:format>image/svg+xml</dc:format>
        <dc:type
           rdf:resource="http://purl.org/dc/dcmitype/StillImage" />
        <dc:title>hl_id_logotype</dc:title>
      </cc:Work>
    </rdf:RDF>
  </metadata>
  <sodipodi:namedview
     pagecolor="#ffffff"
     bordercolor="#666666"
     borderopacity="1"
     objecttolerance="10"
     gridtolerance="10"
     guidetolerance="10"
     inkscape:pageopacity="0"
     inkscape:pageshadow="2"
     inkscape:window-width="1920"
     inkscape:window-height="1027"
     id="namedview33"
     showgrid="false"
     inkscape:zoom="0.39645207"
     inkscape:cx="-170.9206"
     inkscape:cy="34.129985"
     inkscape:window-x="1912"
     inkscape:window-y="-8"
     inkscape:window-maximized="1"
     inkscape:current-layer="Layer_1"
     fit-margin-top="2.7755576e-17" />
  <defs
     id="defs4">
    <style
       id="style2">.cls-1{fill:#292728;}</style>
  </defs>
  <title
     id="title6">hl_id_logotype</title>
  <rect
     class="cls-1"
     x="42.919998"
     y="17.730003"
     width="16.969999"
     height="66.459999"
     id="rect8"
     style="fill:#292728" />
  <path
     class="cls-1"
     d="m 89.580004,32.750003 c -14.64,0 -26.13,12.39 -26.13,26.76 a 26.38,26.38 0 0 0 26.4,26.4 c 10.509996,0 19.579996,-6.37 24.339996,-17.24 H 98.920004 c -2.42,3.15 -5,4.67 -9.07,4.67 -6.1,0 -10.86,-3.77 -11.67,-9.43 H 115.54 a 19,19 0 0 0 0.36,-3.95 c 0,-15.45 -11.41,-27.21 -26.319996,-27.21 z m -11.22,21.1 c 1.17,-5.3 5.84,-8.53 11.22,-8.53 5.75,0 10.24,3.41 11.409996,8.53 z"
     id="path10"
     inkscape:connector-curvature="0"
     style="fill:#292728" />
  <path
     class="cls-1"
     d="m 159.13,39.750003 h -0.18 c -2.87,-4.58 -8.53,-7 -14.64,-7 -14.28,0 -25,11.85 -25,26.58 0,15.09 10.23,26.669997 25,26.669997 6.56,0 12.49,-2.689997 14.64,-7.089997 h 0.18 v 5.39 h 14.89 v -49.85 h -14.89 z m -12.48,32.33 a 12.45,12.45 0 0 1 -12.4,-12.57 c 0,-7.18 5.39,-12.84 12.22,-12.84 a 12.65,12.65 0 0 1 12.66,12.66 12.46,12.46 0 0 1 -12.48,12.75 z"
     id="path12"
     inkscape:connector-curvature="0"
     style="fill:#292728" />
  <rect
     class="cls-1"
     x="179.53001"
     y="17.839989"
     width="14.91"
     height="66.459999"
     id="rect14"
     style="fill:#292728" />
  <polygon
     class="cls-1"
     points="402.59,330.07 402.59,291.54 409.77,291.54 409.77,280.23 402.59,280.23 402.59,263.61 387.68,263.61 387.68,280.23 380.31,280.23 380.31,291.54 387.68,291.54 387.68,330.07 "
     id="polygon16"
     style="fill:#292728"
     transform="translate(-181.98,-245.77)" />
  <path
     class="cls-1"
     d="m 259.28,32.750003 c -5.92,0 -10.77,2.42 -12.93,6.46 v -21.37 h -14.91 v 66.46 h 14.91 v -28 c 0,-6.2 2.7,-9.52 8.35,-9.52 5.48,0 8,3.68 8,10.15 v 27.39 h 14.9 v -31.36 c 0,-13.03 -6.91,-20.21 -18.32,-20.21 z"
     id="path18"
     inkscape:connector-curvature="0"
     style="fill:#292728" />
  <polygon
     class="cls-1"
     points="464.76,263.61 464.76,330.07 501.4,330.07 501.4,315.16 481.74,315.16 481.74,263.61 "
     id="polygon20"
     style="fill:#292728"
     transform="translate(-181.98,-245.77)" />
  <path
     class="cls-1"
     d="m 360.75,39.750003 h -0.18 c -2.88,-4.58 -8.53,-7 -14.64,-7 -14.28,0 -25,11.85 -25,26.58 0,15.09 10.24,26.669997 25,26.669997 6.55,0 12.48,-2.689997 14.64,-7.089997 h 0.18 v 5.39 h 14.91 v -49.85 h -14.91 z m -12.49,32.33 a 12.45,12.45 0 0 1 -12.39,-12.57 c 0,-7.18 5.39,-12.84 12.21,-12.84 a 12.65,12.65 0 0 1 12.67,12.66 12.46,12.46 0 0 1 -12.49,12.75 z"
     id="path22"
     inkscape:connector-curvature="0"
     style="fill:#292728" />
  <path
     class="cls-1"
     d="m 409.91,32.750003 c -5.21,0 -10.24,1.44 -14.19,5.66 v -20.57 h -14.91 v 66.46 h 14.28 v -5.3 h 0.18 c 2.24,4.22 8.26,6.999997 14.28,6.999997 15.35,0 25.14,-11.579997 25.14,-26.939997 0,-16.61 -11.85,-26.31 -24.78,-26.31 z m -2.61,39.33 c -6.91,0 -12.12,-5.47 -12.12,-12.84 a 12.31,12.31 0 1 1 12.12,12.84 z"
     id="path24"
     inkscape:connector-curvature="0"
     style="fill:#292728" />
  <path
     class="cls-1"
     d="m 462.21,53.850003 c -6.91,-1.79 -9.34,-3.14 -9.34,-5.83 0,-1.89 1.8,-3.33 4.31,-3.33 2.51,0 4.49,0.9 4.58,3.78 h 14.64 c -0.72,-9.79 -8.35,-15.72 -19.13,-15.72 -10.06,0 -19.31,6.37 -19.31,16.25 0,5.84 3.33,10.78 15.9,14.64 7.45,2.34 9.16,3.77 9.16,6.56 0,2.33 -2.6,3.86 -5.21,3.86 -3,0 -5.21,-1.44 -5.66,-4.58 H 437.33 C 438.41,79.630003 446.4,86 457.63,86 c 11.23,0 20.3,-6.549997 20.3,-16.999997 0,-7.24 -3.86,-12 -15.72,-15.15 z"
     id="path26"
     inkscape:connector-curvature="0"
     style="fill:#292728" />
  <path
     class="cls-1"
     d="m 20.390004,62.440003 a 21.11,21.11 0 0 0 19.11,-23 21.12,21.12 0 0 0 -19.11,23 z"
     id="path28"
     inkscape:connector-curvature="0"
     style="fill:#292728" />
  <rect
     class="cls-1"
     x="0"
     y="17.730003"
     width="16.969999"
     height="66.459999"
     id="rect30"
     style="fill:#292728" />
</svg>
